{"asset":{"version":"2.0","generator":"voxel-maker"},"scene":0,"scenes":[{"nodes":[1]}],"nodes":[{"name":"Cube","translation":[1,2,3],"mesh":0},{"name":"Cube Root","children":[0]}],"meshes":[{"name":"Cube voxels","primitives":[{"attributes":{"POSITION":0,"NORMAL":1},"indices":2,"material":0,"mode":4},{"attributes":{"POSITION":0,"NORMAL":1},"indices":3,"material":1,"mode":4}]}],"materials":[{"name":"base","pbrMetallicRoughness":{"baseColorFactor":[0.7843137254901961,0.7215686274509804,0.6039215686274509,1],"metallicFactor":0,"roughnessFactor":0.8},"emissiveFactor":[0,0,0],"alphaMode":"OPAQUE"},{"name":"accent","pbrMetallicRoughness":{"baseColorFactor":[0.5411764705882353,0.35294117647058826,0.22745098039215686,1],"metallicFactor":0.1,"roughnessFactor":0.6},"emissiveFactor":[0.05,0.05,0.05],"alphaMode":"OPAQUE"}],"accessors":[{"bufferView":0,"componentType":5126,"count":128,"type":"VEC3","min":[0,0,0],"max":[2,2,2]},{"bufferView":1,"componentType":5126,"count":128,"type":"VEC3"},{"bufferView":2,"componentType":5125,"count":96,"type":"SCALAR"},{"bufferView":3,"componentType":5125,"count":96,"type":"SCALAR"}],"bufferViews":[{"buffer":0,"byteLength":1536,"target":34962},{"buffer":0,"byteLength":1536,"target":34962,"byteOffset":1536},{"buffer":0,"byteLength":384,"target":34963,"byteOffset":3072},{"buffer":0,"byteLength":384,"target":34963,"byteOffset":3456}],"buffers":[{"uri":"data:application/octet-stream;base64,","byteLength":3840}]}